<?xml version="1.0" encoding="utf-8"?>
<!-- Generator: Adobe Illustrator 25.3.1, SVG Export Plug-In . SVG Version: 6.00 Build 0)  -->
<svg version="1.1" id="Layer_1" focusable="false" xmlns="http://www.w3.org/2000/svg" xmlns:xlink="http://www.w3.org/1999/xlink"
	 x="0px" y="0px" viewBox="0 0 512 512" style="enable-background:new 0 0 512 512;" xml:space="preserve">
<path d="M496,368H16c-8.8,0-16,7.2-16,16v64c0,8.8,7.2,16,16,16h480c8.8,0,16-7.2,16-16v-64C512,375.2,504.8,368,496,368z M496,48
	H16C7.2,48,0,55.2,0,64v64c0,8.8,7.2,16,16,16h480c8.8,0,16-7.2,16-16V64C512,55.2,504.8,48,496,48z M496,208H16
	c-8.8,0-16,7.2-16,16v64c0,8.8,7.2,16,16,16h480c8.8,0,16-7.2,16-16v-64C512,215.2,504.8,208,496,208z" style="fill:white"/>
</svg>
